<svg width="560" height="360" viewBox="0 0 560 360" fill="none" xmlns="http://www.w3.org/2000/svg" role="img" aria-label="Dashboard preview with cards and metrics">
  <rect width="560" height="360" rx="28" fill="url(#bg)" />
  <rect x="28" y="24" width="96" height="16" rx="8" fill="#E8EEF7" />
  <rect x="136" y="24" width="72" height="16" rx="8" fill="#E8EEF7" />
  <rect x="28" y="56" width="308" height="22" rx="10" fill="#F6F1E9" />
  <rect x="28" y="92" width="200" height="20" rx="9" fill="#F6F1E9" />
  <rect x="28" y="128" width="200" height="22" rx="10" fill="#E8EEF7" />
  <rect x="28" y="164" width="128" height="20" rx="10" fill="#CFE7D5" />
  <rect x="376" y="46" width="140" height="22" rx="10" fill="#193F38" />
  <rect x="376" y="78" width="140" height="22" rx="10" fill="#1F5148" />
  <rect x="376" y="110" width="140" height="22" rx="10" fill="#1C463F" />
  <rect x="376" y="142" width="140" height="22" rx="10" fill="#1B4039" />
  <rect x="376" y="174" width="140" height="22" rx="10" fill="#18372F" />
  <rect x="226" y="128" width="110" height="22" rx="10" fill="#193F38" />
  <rect x="226" y="164" width="86" height="20" rx="10" fill="#E8EEF7" />
  <rect x="28" y="208" width="504" height="120" rx="12" fill="#FFFFFF" stroke="#E1DED8" />
  <rect x="44" y="224" width="184" height="88" rx="12" fill="#EBF3FF" />
  <rect x="248" y="224" width="228" height="20" rx="10" fill="#ECE9F5" />
  <rect x="248" y="254" width="146" height="14" rx="7" fill="#D9D0E9" />
  <rect x="248" y="278" width="194" height="14" rx="7" fill="#D9D0E9" />
  <rect x="248" y="302" width="176" height="14" rx="7" fill="#D9D0E9" />
  <rect x="458" y="224" width="60" height="12" rx="6" fill="#193F38" />
  <rect x="458" y="244" width="60" height="12" rx="6" fill="#1F5148" />
  <rect x="458" y="264" width="60" height="12" rx="6" fill="#1B4039" />
  <rect x="458" y="284" width="60" height="12" rx="6" fill="#18372F" />
  <g fill="#193F38">
    <rect x="52" y="240" width="52" height="52" rx="12" />
    <rect x="116" y="240" width="52" height="52" rx="12" opacity="0.92" />
    <rect x="180" y="240" width="28" height="52" rx="12" opacity="0.84" />
  </g>
  <defs>
    <linearGradient id="bg" x1="60" y1="12" x2="492" y2="348" gradientUnits="userSpaceOnUse">
      <stop stop-color="#F9F5EE" />
      <stop offset="0.42" stop-color="#F1EAF6" />
      <stop offset="1" stop-color="#E6F0FF" />
    </linearGradient>
  </defs>
</svg>
